<?xml version="1.0" encoding="UTF-8"?>
<!DOCTYPE svg PUBLIC "-//W3C//DTD SVG 1.1//EN" "http://www.w3.org/Graphics/SVG/1.1/DTD/svg11.dtd">
<svg xmlns="http://www.w3.org/2000/svg" version="1.1" width="389px" height="61px" style="shape-rendering:geometricPrecision; text-rendering:geometricPrecision; image-rendering:optimizeQuality; fill-rule:evenodd; clip-rule:evenodd" xmlns:xlink="http://www.w3.org/1999/xlink">
<g><path style="opacity:0.625" fill="#fe9900" d="M 24.5,2.5 C 30.0839,1.52485 34.9173,2.85818 39,6.5C 42.9527,5.67903 46.286,7.01236 49,10.5C 48.9742,14.3048 50.8076,16.3048 54.5,16.5C 55.0579,19.3443 55.7245,22.1776 56.5,25C 55.7457,28.8117 55.5791,32.645 56,36.5C 55.8957,40.3806 54.0624,43.0472 50.5,44.5C 49.8509,48.3019 47.8509,51.1352 44.5,53C 39.5638,53.6331 34.5638,54.7998 29.5,56.5C 24.9724,54.4085 20.3058,53.2419 15.5,53C 12.1171,51.6196 10.2838,49.1196 10,45.5C 5.65768,42.5129 3.15768,38.3462 2.5,33C 5.16667,30.6667 5.16667,28.3333 2.5,26C 3.41951,23.1651 4.41951,20.3318 5.5,17.5C 8.75165,16.351 10.585,14.0176 11,10.5C 14.1788,6.49427 18.3455,4.49427 23.5,4.5C 23.8627,3.81654 24.1961,3.14987 24.5,2.5 Z M 15.5,8.5 C 16.4734,8.98672 17.4734,9.48672 18.5,10C 17.0692,10.4652 15.9025,11.2986 15,12.5C 14.4209,11.0715 14.5876,9.7382 15.5,8.5 Z M 41.5,13.5 C 34.3142,9.98155 26.9808,9.64822 19.5,12.5C 20.0283,11.2794 20.695,10.1127 21.5,9C 27.1959,8.17009 32.8625,8.33676 38.5,9.5C 39.5244,10.8518 40.5244,12.1851 41.5,13.5 Z M 41.5,10.5 C 42.5676,9.56552 43.901,9.23219 45.5,9.5C 45.6495,10.552 45.4828,11.552 45,12.5C 43.8873,11.695 42.7206,11.0283 41.5,10.5 Z M 19.5,12.5 C 8.8161,22.1292 7.8161,32.6292 16.5,44C 24.0006,49.0151 32.0006,49.8485 40.5,46.5C 39.8561,49.144 38.1894,50.8106 35.5,51.5C 31.6803,50.2008 27.8469,50.2008 24,51.5C 20.5336,48.0337 16.5336,45.367 12,43.5C 11.0274,38.6691 9.52744,34.0024 7.5,29.5C 9.80898,25.8879 10.9756,21.8879 11,17.5C 13.6418,15.432 16.4752,13.7653 19.5,12.5 Z M 41.5,13.5 C 43.8398,14.086 46.0065,15.086 48,16.5C 48.616,21.1829 50.116,25.5162 52.5,29.5C 50.049,33.8508 48.3823,38.5175 47.5,43.5C 45.045,44.3548 42.7117,45.3548 40.5,46.5C 51.937,35.7832 52.2703,24.7832 41.5,13.5 Z M 6.5,20.5 C 7.7759,21.3864 7.7759,22.3864 6.5,23.5C 5.43764,22.5754 5.43764,21.5754 6.5,20.5 Z M 51.5,21.5 C 51.56,20.9569 51.8933,20.6236 52.5,20.5C 54.9588,23.7697 54.6254,24.103 51.5,21.5 Z M 5.5,35.5 C 7.22516,35.8425 7.72516,36.8425 7,38.5C 5.96141,37.7562 5.46141,36.7562 5.5,35.5 Z M 52.5,35.5 C 53.2389,35.369 53.9056,35.5357 54.5,36C 53.1177,40.7055 52.4511,40.5388 52.5,35.5 Z M 14.5,47.5 C 16.9728,47.6043 17.6394,48.6043 16.5,50.5C 14.1286,50.1084 13.4619,49.1084 14.5,47.5 Z M 43.5,47.5 C 46.0118,48.2162 46.0118,49.2162 43.5,50.5C 42.4376,49.5754 42.4376,48.5754 43.5,47.5 Z"/></g>
<g><path style="opacity:0.867" fill="#fe9900" d="M 103.5,8.5 C 112.244,8.41262 114.577,12.246 110.5,20C 107.571,20.7772 104.737,20.6105 102,19.5C 99.6892,15.3741 100.189,11.7075 103.5,8.5 Z"/></g>
<g><path style="opacity:0.867" fill="#fe9900" d="M 240.5,8.5 C 249.244,8.41262 251.577,12.246 247.5,20C 244.571,20.7772 241.737,20.6105 239,19.5C 236.689,15.3741 237.189,11.7075 240.5,8.5 Z"/></g>
<g><path style="opacity:0.894" fill="#fe9900" d="M 213.5,29.5 C 213.501,23.3348 216.668,20.3348 223,20.5C 233.583,21.4032 237.416,26.9032 234.5,37C 237.275,40.3081 236.609,42.8081 232.5,44.5C 227.463,44.471 222.463,43.971 217.5,43C 215.185,41.8906 213.685,40.0573 213,37.5C 212.48,42.9008 209.647,44.5674 204.5,42.5C 202.113,26.6047 199.946,26.6047 198,42.5C 195.333,45.1667 192.667,45.1667 190,42.5C 189.086,38.8582 188.252,35.1915 187.5,31.5C 186.5,32 185.5,32.5 184.5,33C 188.582,36.6968 188.249,40.0301 183.5,43C 173.392,46.1961 166.892,42.6961 164,32.5C 163.107,40.56 158.607,44.56 150.5,44.5C 138.358,41.3682 135.358,34.2015 141.5,23C 144.87,20.9222 148.537,20.0889 152.5,20.5C 151.992,17.8239 151.825,15.1572 152,12.5C 155.649,8.40161 158.982,8.73495 162,13.5C 163.642,18.708 164.642,24.0414 165,29.5C 166.917,23.8611 170.917,20.8611 177,20.5C 181.455,20.7237 184.788,22.7237 187,26.5C 187.667,21.8333 188.333,17.1667 189,12.5C 191.496,8.99805 194.329,8.66472 197.5,11.5C 198.23,14.1092 198.73,16.7759 199,19.5C 206.125,19.7914 210.958,23.1247 213.5,29.5 Z M 213.5,29.5 C 215.086,30.1481 216.753,30.6481 218.5,31C 216.714,31.7845 215.214,32.9512 214,34.5C 213.506,32.8659 213.34,31.1992 213.5,29.5 Z M 148.5,30.5 C 149.833,30.5 151.167,30.5 152.5,30.5C 152.884,32.6648 152.217,34.3315 150.5,35.5C 148.783,34.3315 148.116,32.6648 148.5,30.5 Z M 176.5,30.5 C 182.283,31.5543 182.617,33.221 177.5,35.5C 175.296,34.218 174.962,32.5514 176.5,30.5 Z M 222.5,37.5 C 223.077,36.2267 223.743,36.2267 224.5,37.5C 224.03,38.463 223.363,38.463 222.5,37.5 Z"/></g>
<g><path style="opacity:0.899" fill="#fe9900" d="M 286.5,9.5 C 292.456,8.94296 297.623,10.6096 302,14.5C 305.059,20.2133 303.393,23.5467 297,24.5C 288.74,23.3505 288.907,24.1838 297.5,27C 299.378,28.5429 300.878,30.3762 302,32.5C 302.692,29.0636 303.692,25.7302 305,22.5C 309.366,19.2055 312.2,20.2055 313.5,25.5C 312.425,28.438 312.259,31.438 313,34.5C 314.254,31.0244 314.921,27.3577 315,23.5C 317.333,22.1667 319.667,22.1667 322,23.5C 322.498,26.8168 322.665,30.1501 322.5,33.5C 323.5,33.5 324.5,33.5 325.5,33.5C 325.428,30.8067 325.095,28.1401 324.5,25.5C 325.998,19.7509 328.831,19.0842 333,23.5C 333.333,24.8333 333.667,26.1667 334,27.5C 336.864,21.3109 341.697,19.1442 348.5,21C 351.913,22.0774 354.413,24.2441 356,27.5C 356.667,42.1667 357.333,42.1667 358,27.5C 358.233,25.2199 359.066,23.2199 360.5,21.5C 365.759,21.3684 371.092,21.2018 376.5,21C 383.974,24.1204 386.474,29.6204 384,37.5C 380.023,43.5491 374.523,45.5491 367.5,43.5C 368.32,47.2399 366.987,49.5733 363.5,50.5C 361.626,50.6102 360.126,49.9436 359,48.5C 358.71,46.0481 358.044,43.7148 357,41.5C 356.3,43.032 355.134,44.032 353.5,44.5C 349.536,43.7691 345.536,43.6025 341.5,44C 337,43.5 334.5,41 334,36.5C 331.194,43.4067 326.194,45.4067 319,42.5C 310.986,46.1651 305.653,43.8318 303,35.5C 300.674,41.5903 296.174,44.5903 289.5,44.5C 284.691,44.2647 280.525,42.5981 277,39.5C 275.461,35.2598 276.794,32.5932 281,31.5C 283.437,32.6542 285.937,33.1542 288.5,33C 284.637,31.8189 281.137,29.9856 278,27.5C 274.652,18.5317 277.485,12.5317 286.5,9.5 Z M 334.5,28.5 C 335.83,29.8321 337.497,30.6655 339.5,31C 337.333,31.8333 335.833,33.3333 335,35.5C 334.503,33.1902 334.337,30.8568 334.5,28.5 Z M 371.5,30.5 C 376.049,30.9323 376.549,32.5989 373,35.5C 370.676,34.2247 370.176,32.558 371.5,30.5 Z M 343.5,37.5 C 344.251,36.4265 345.251,36.2599 346.5,37C 345.648,38.7284 344.648,38.895 343.5,37.5 Z"/></g>
<g><path style="opacity:0.856" fill="#fcfaf7" d="M 41.5,13.5 C 52.2703,24.7832 51.937,35.7832 40.5,46.5C 32.0006,49.8485 24.0006,49.0151 16.5,44C 7.8161,32.6292 8.8161,22.1292 19.5,12.5C 26.9808,9.64822 34.3142,9.98155 41.5,13.5 Z"/></g>
<g><path style="opacity:0.934" fill="#fe9900" d="M 69.5,10.5 C 72.5184,10.3354 75.5184,10.502 78.5,11C 79.7014,11.9025 80.5348,13.0692 81,14.5C 90.5602,7.43898 96.8935,9.77231 100,21.5C 101.683,29.414 100.183,36.5806 95.5,43C 92.7611,45.193 90.4278,44.8597 88.5,42C 88.3148,37.5719 88.1482,33.0719 88,28.5C 86.7313,32.6491 86.0646,36.9824 86,41.5C 82.9053,45.327 79.9053,45.327 77,41.5C 75.2643,24.3411 74.2643,24.6745 74,42.5C 71.0844,44.0135 68.4177,43.6801 66,41.5C 61.7904,32.9841 61.4571,24.3174 65,15.5C 66.3657,13.6383 67.8657,11.9717 69.5,10.5 Z"/></g>
<g><path style="opacity:0.891" fill="#fe9900" d="M 117.5,19.5 C 119.366,20.0138 121.2,20.6805 123,21.5C 133.479,19.6388 138.312,24.1388 137.5,35C 137.333,37.1667 137.167,39.3333 137,41.5C 134.888,44.9291 132.388,45.2625 129.5,42.5C 128.756,39.557 128.256,36.557 128,33.5C 127.047,31.4078 125.714,31.0745 124,32.5C 123.754,35.8897 123.254,39.223 122.5,42.5C 117.304,45.4774 114.471,43.8107 114,37.5C 113.333,33.5 113.333,29.5 114,25.5C 114.424,22.9746 115.59,20.9746 117.5,19.5 Z"/></g>
<g><path style="opacity:0.893" fill="#fe9900" d="M 254.5,19.5 C 256.366,20.0138 258.2,20.6805 260,21.5C 270.479,19.6388 275.312,24.1388 274.5,35C 274.333,37.1667 274.167,39.3333 274,41.5C 271.888,44.9291 269.388,45.2625 266.5,42.5C 265.756,39.557 265.256,36.557 265,33.5C 264.047,31.4078 262.714,31.0745 261,32.5C 260.895,36.37 260.062,40.0366 258.5,43.5C 253.639,44.8278 251.139,42.8278 251,37.5C 250.333,33.5 250.333,29.5 251,25.5C 251.424,22.9746 252.59,20.9746 254.5,19.5 Z"/></g>
<g><path style="opacity:0.858" fill="#fe9900" d="M 103.5,22.5 C 105.527,22.3379 107.527,22.5045 109.5,23C 110.126,23.7504 110.626,24.5838 111,25.5C 111.667,30.5 111.667,35.5 111,40.5C 109.529,44.5459 107.029,45.3793 103.5,43C 100.859,36.1672 100.859,29.3338 103.5,22.5 Z"/></g>
<g><path style="opacity:0.858" fill="#fe9900" d="M 240.5,22.5 C 242.527,22.3379 244.527,22.5045 246.5,23C 247.126,23.7504 247.626,24.5838 248,25.5C 248.667,30.5 248.667,35.5 248,40.5C 246.529,44.5459 244.029,45.3793 240.5,43C 237.859,36.1672 237.859,29.3338 240.5,22.5 Z"/></g>
<g><path style="opacity:1" fill="#d87f0c" d="M 31.5,14.5 C 40.0111,15.5124 44.6777,20.3457 45.5,29C 45.3632,31.898 44.8632,34.7314 44,37.5C 42.1217,39.0429 40.6217,40.8762 39.5,43C 36.6715,44.5086 33.8381,44.6753 31,43.5C 30.1943,33.756 30.361,24.0893 31.5,14.5 Z"/></g>
<g><path style="opacity:1" fill="#420b02" d="M 32.5,42.5 C 32.3285,40.5082 32.9951,38.8415 34.5,37.5C 34.3764,36.8933 34.0431,36.56 33.5,36.5C 32.8826,36.3893 32.3826,36.056 32,35.5C 31.3333,32.8333 31.3333,30.1667 32,27.5C 33.0674,26.8095 34.2341,26.3095 35.5,26C 34.2341,25.6905 33.0674,25.1905 32,24.5C 31.3333,21.8333 31.3333,19.1667 32,16.5C 33.8402,15.1669 34.3402,15.3335 33.5,17C 34.7376,16.9227 35.7376,17.0894 36.5,17.5C 35.675,18.3857 34.675,18.719 33.5,18.5C 33.0941,20.1092 33.0941,21.4425 33.5,22.5C 35.7534,21.7469 37.5867,20.4136 39,18.5C 39.3176,20.0609 40.1509,21.2276 41.5,22C 39.4233,22.1922 37.4233,22.6922 35.5,23.5C 36.727,24.5904 37.5604,25.9238 38,27.5C 38.9234,26.2412 39.7568,24.9079 40.5,23.5C 42.7236,24.0807 43.557,25.4141 43,27.5C 42.586,27.0426 42.086,26.7093 41.5,26.5C 40.5713,27.6888 40.238,29.0222 40.5,30.5C 41.675,30.281 42.675,30.6143 43.5,31.5C 41.939,32.3473 40.439,32.0139 39,30.5C 38.8882,33.4471 37.3882,34.7804 34.5,34.5C 34.703,32.3618 35.703,30.6951 37.5,29.5C 37.1667,29.1667 36.8333,28.8333 36.5,28.5C 35.2054,29.0983 33.8721,29.5983 32.5,30C 33.4061,31.6995 33.7394,33.5328 33.5,35.5C 36.1569,35.838 38.4902,35.1713 40.5,33.5C 42.9146,34.9187 43.0813,36.5854 41,38.5C 40.6667,38.1667 40.3333,37.8333 40,37.5C 39.7699,41.2132 38.6032,41.8799 36.5,39.5C 35.5713,40.6888 35.238,42.0222 35.5,43.5C 34.209,43.7373 33.209,43.404 32.5,42.5 Z"/></g>
<g><path style="opacity:1" fill="#d47b0a" d="M 23.5,14.5 C 28.4921,13.4921 30.4921,15.4921 29.5,20.5C 29.3629,28.0847 29.1963,35.7513 29,43.5C 23.5224,45.0049 19.1891,43.3383 16,38.5C 12.0842,28.1998 14.5842,20.1998 23.5,14.5 Z"/></g>
<g><path style="opacity:1" fill="#390401" d="M 17.5,33.5 C 19.6847,33.8881 21.518,34.8881 23,36.5C 24.8916,36.2231 26.2249,35.2231 27,33.5C 27.5396,35.1346 27.0396,36.4679 25.5,37.5C 27.1045,39.1789 27.7711,41.1789 27.5,43.5C 26.5,43.5 25.5,43.5 24.5,43.5C 24.3276,39.0293 23.4943,38.6959 22,42.5C 20.7308,41.0953 20.2308,39.4286 20.5,37.5C 19.5,37.5 18.5,37.5 17.5,37.5C 17.5,36.1667 17.5,34.8333 17.5,33.5 Z"/></g>
<g><path style="opacity:1" fill="#410b02" d="M 24.5,22.5 C 25.5,22.5 26.5,22.5 27.5,22.5C 27.5,23.5 27.5,24.5 27.5,25.5C 23.5,25.8333 23.5,26.1667 27.5,26.5C 27.5,27.5 27.5,28.5 27.5,29.5C 26.0695,29.5792 24.7362,29.2458 23.5,28.5C 23.1667,28.8333 22.8333,29.1667 22.5,29.5C 23.2634,30.7193 24.2634,31.7193 25.5,32.5C 24.6798,34.1112 23.3464,34.7778 21.5,34.5C 21.762,33.0222 21.4287,31.6888 20.5,30.5C 19.0316,32.3329 17.3649,32.6662 15.5,31.5C 16.0354,29.7295 16.8687,29.3961 18,30.5C 18.6667,29.1667 18.6667,27.8333 18,26.5C 16.3577,27.8463 15.6911,27.5129 16,25.5C 17.1096,23.9632 18.6096,23.2965 20.5,23.5C 20.3505,24.552 20.5172,25.552 21,26.5C 22.3875,25.2642 23.5542,23.9308 24.5,22.5 Z"/></g>
<g><path style="opacity:1" fill="#410a02" d="M 24.5,22.5 C 18.2275,23.6807 17.0608,22.014 21,17.5C 21.9973,19.3231 23.1639,20.9897 24.5,22.5 Z"/></g>
<g><path style="opacity:1" fill="#400900" d="M 26.5,16.5 C 27.7879,18.0348 27.7879,19.7015 26.5,21.5C 25.7492,20.624 25.2492,19.624 25,18.5C 24.3457,19.6956 23.8457,19.6956 23.5,18.5C 24.6016,17.8243 25.6016,17.1577 26.5,16.5 Z"/></g>
<g><path style="opacity:1" fill="#6f2c00" d="M 33.5,36.5 C 34.0431,36.56 34.3764,36.8933 34.5,37.5C 32.9951,38.8415 32.3285,40.5082 32.5,42.5C 31.1566,40.3166 31.49,38.3166 33.5,36.5 Z"/></g>
</svg>
