<svg>
<path d="M0 0 C2.29776435 2.22364292 2.90078213 3.41886678 3.4375 6.5625 C3 9 3 9 1.4375 10.8125 C-1.80428616 12.39183172 -4.44288878 12.20521796 -8 12 C-7.071875 12.433125 -6.14375 12.86625 -5.1875 13.3125 C-2.47033617 14.7509985 -1.03268761 15.82081239 1 18 C1.27714844 17.36191406 1.55429687 16.72382813 1.83984375 16.06640625 C2.20207031 15.24011719 2.56429688 14.41382812 2.9375 13.5625 C3.29714844 12.73878906 3.65679687 11.91507813 4.02734375 11.06640625 C5 9 5 9 6 8 C7.66617115 7.95936168 9.33388095 7.957279 11 8 C12.75747614 12.50353262 13.19294408 16.17639811 13 21 C13.09087891 19.93458984 13.09087891 19.93458984 13.18359375 18.84765625 C13.26738281 17.92855469 13.35117187 17.00945313 13.4375 16.0625 C13.51871094 15.14597656 13.59992188 14.22945312 13.68359375 13.28515625 C14 11 14 11 15 10 C18 9.875 18 9.875 21 10 C22 11 22 11 22.09765625 13.28515625 C22.08605469 14.20167969 22.07445312 15.11820313 22.0625 16.0625 C22.05347656 16.98160156 22.04445313 17.90070312 22.03515625 18.84765625 C22.02355469 19.55792969 22.01195312 20.26820312 22 21 C22.99 21 23.98 21 25 21 C24.90460938 20.22914062 24.80921875 19.45828125 24.7109375 18.6640625 C24.60007812 17.66117188 24.48921875 16.65828125 24.375 15.625 C24.25898438 14.62726562 24.14296875 13.62953125 24.0234375 12.6015625 C24.01183594 11.31378906 24.01183594 11.31378906 24 10 C24.66 9.34 25.32 8.68 26 8 C28.4375 8.125 28.4375 8.125 31 9 C32.8125 11.0625 32.8125 11.0625 34 13 C34.433125 12.360625 34.86625 11.72125 35.3125 11.0625 C37 9 37 9 40 8 C45.39888643 7.65168475 48.58870745 7.56899468 53 11 C54.36984198 12.29579647 55.7151049 13.61992749 57 15 C57.66 13.02 58.32 11.04 59 9 C65.89218606 7.50979761 73.16372508 6.55698293 79.5625 9.8125 C82.14987531 12.13450348 83.82403151 13.7927743 84.3359375 17.3046875 C84.40019798 21.53302696 84.42047353 24.2524915 82.3125 28 C79.24473793 30.65319963 77.06277994 32.1075565 72.90234375 31.890625 C70.92678027 31.65369675 68.96174176 31.3324986 67 31 C66.67 33.31 66.34 35.62 66 38 C63.125 38.125 63.125 38.125 60 38 C57.64046906 35.64046906 57.50858587 34.22104383 57 31 C56.28714844 31.15984375 55.57429688 31.3196875 54.83984375 31.484375 C48.88414062 32.56574063 43.09475384 32.75844535 37.375 30.6875 C35 29 35 29 34 26 C33.13375 27.2375 33.13375 27.2375 32.25 28.5 C30.20939666 30.57558511 29.18455303 30.9801331 26.2421875 31.296875 C24.14111507 31.26527993 22.04031447 31.1980948 19.94140625 31.09765625 C16.81738303 30.89352744 16.81738303 30.89352744 13.0625 31.6875 C9.26203471 32.07530258 7.9418651 31.36983578 5 29 C3.1875 26.8125 3.1875 26.8125 2 25 C1.835 25.598125 1.67 26.19625 1.5 26.8125 C-0.8522442 30.24285613 -4.076439 31.21268511 -8 32 C-13.63938461 32.1454773 -18.43247384 31.53614929 -23 28 C-24 27 -24 27 -24.25 24.0625 C-24.1675 23.051875 -24.085 22.04125 -24 21 C-20.1496895 18.43312633 -18.41430237 19.16711276 -14 20 C-14.83144531 19.61908203 -14.83144531 19.61908203 -15.6796875 19.23046875 C-16.40414063 18.88628906 -17.12859375 18.54210937 -17.875 18.1875 C-18.59429687 17.85105469 -19.31359375 17.51460937 -20.0546875 17.16796875 C-22 16 -22 16 -24 13 C-24.53342201 8.35160821 -24.7518768 5.38703257 -21.8125 1.625 C-15.10816861 -4.63237597 -7.91192103 -4.26026517 0 0 Z M34 16 C34 18.31 34 20.62 34 23 C35.65 21.35 37.3 19.7 39 18 C37.68 18 36.36 18 35 18 C34.67 17.34 34.34 16.68 34 16 Z M41 17 C41 17.33 41 17.66 41 18 C42.65 18 44.3 18 46 18 C46 17.67 46 17.34 46 17 C44.35 17 42.7 17 41 17 Z M71 18 C71 19.32 71 20.64 71 22 C71.99 22 72.98 22 74 22 C74 20.68 74 19.36 74 18 C73.01 18 72.02 18 71 18 Z M43 24 C43.66 24.66 44.32 25.32 45 26 C45.33 25.34 45.66 24.68 46 24 C45.01 24 44.02 24 43 24 Z " fill="#FF9900" transform="translate(301,13)"/>
<path d="M0 0 C3 1.0625 3 1.0625 4.75 3.5 C6.31408002 7.95762805 7.21862273 12.41100705 8 17.0625 C8.763125 16.258125 9.52625 15.45375 10.3125 14.625 C13.46199125 11.62199671 15.02905475 11.15409861 19.3125 10.75 C23.61891368 11.11495031 25.63529711 12.43639043 29 15.0625 C29.10957031 14.23105469 29.21914062 13.39960938 29.33203125 12.54296875 C29.49058594 11.45628906 29.64914063 10.36960937 29.8125 9.25 C29.96332031 8.17105469 30.11414063 7.09210937 30.26953125 5.98046875 C31.01854104 2.98843501 31.4602742 1.77193083 34 0.0625 C37.1875 0.375 37.1875 0.375 40 1.0625 C40.66 4.0325 41.32 7.0025 42 10.0625 C43.8253125 10.4028125 43.8253125 10.4028125 45.6875 10.75 C49.95560284 11.78859696 52.15028884 13.678468 55 17.0625 C55.598125 16.258125 56.19625 15.45375 56.8125 14.625 C59 12.0625 59 12.0625 62 11.0625 C67.24262952 10.66682985 70.54355112 11.22657799 75 14.0625 C77.03533736 16.26028213 77.93982177 17.49354215 78.2578125 20.5 C78.21398437 21.345625 78.17015625 22.19125 78.125 23.0625 C77.94030707 26.68196349 77.94030707 26.68196349 78.6796875 30.1875 C79 32.0625 79 32.0625 77.95703125 33.7890625 C73.6991177 36.5596809 67.86820192 35.5164673 63 35.0625 C57.48979592 33.04209184 57.48979592 33.04209184 56 30.0625 C55.34 31.3825 54.68 32.7025 54 34.0625 C51.69 34.0625 49.38 34.0625 47 34.0625 C46.01 30.1025 45.02 26.1425 44 22.0625 C41.81715644 25.86681832 41.81715644 25.86681832 41.5625 29.6875 C41.2840625 31.358125 41.2840625 31.358125 41 33.0625 C38 35.0625 38 35.0625 35.4375 34.9375 C33 34.0625 33 34.0625 31.6875 32.5 C30.68789002 28.95592826 30.87740624 25.74031281 31 22.0625 C30.01 22.7225 29.02 23.3825 28 24.0625 C28.66 24.7225 29.32 25.3825 30 26.0625 C29.8125 29.0625 29.8125 29.0625 29 32.0625 C25.40132771 34.46161486 22.25888674 35.12501577 18 35.0625 C13.41274473 33.63368278 10.39362514 32.31783359 8 28.0625 C7.67 27.0725 7.34 26.0825 7 25.0625 C6.72027344 25.61679687 6.44054687 26.17109375 6.15234375 26.7421875 C4.01231951 30.60936957 2.775608 32.69664717 -1.3125 34.625 C-5.74753206 35.15119024 -8.63757917 35.1179244 -13 34.0625 C-16.13316436 31.46264021 -18.7748786 29.26609213 -19.203125 25.07421875 C-19.30031515 20.25520735 -19.26046348 16.9051891 -16 13.0625 C-12.58063208 10.49797406 -9.14444215 10.90309838 -5 11.0625 C-5.226875 9.804375 -5.45375 8.54625 -5.6875 7.25 C-6.1558908 3.36511156 -6.1558908 3.36511156 -4.9375 1 C-3 0.0625 -3 0.0625 0 0 Z M56 20.0625 C56 21.7125 56 23.3625 56 25.0625 C57.65 23.7425 59.3 22.4225 61 21.0625 C59.35 20.7325 57.7 20.4025 56 20.0625 Z M63 20.0625 C67 21.0625 67 21.0625 67 21.0625 Z M-9 21.0625 C-8.67 22.7125 -8.34 24.3625 -8 26.0625 C-7.01 25.7325 -6.02 25.4025 -5 25.0625 C-5 23.7425 -5 22.4225 -5 21.0625 C-6.32 21.0625 -7.64 21.0625 -9 21.0625 Z M19 21.0625 C18.67 22.3825 18.34 23.7025 18 25.0625 C18.99 25.3925 19.98 25.7225 21 26.0625 C21.99 25.0725 22.98 24.0825 24 23.0625 C23.34 22.4025 22.68 21.7425 22 21.0625 C21.01 21.0625 20.02 21.0625 19 21.0625 Z M65 27.0625 C65.66 27.7225 66.32 28.3825 67 29.0625 C67 28.4025 67 27.7425 67 27.0625 C66.34 27.0625 65.68 27.0625 65 27.0625 Z " fill="#FF9900" transform="translate(158,9.9375)"/>
<path d="M0 0 C5.00652764 2.88254622 7.82378764 6.29423842 10.0625 11.6875 C11.06299517 17.59042148 10.77916471 22.27253463 8 27.625 C4.08491164 32.28078075 0.37883147 35.93713936 -5.9140625 36.68359375 C-12.7650431 36.97568982 -17.04642004 36.24563107 -22.53515625 32.02734375 C-27.11510696 27.76949946 -28.124144 23.63527206 -28.625 17.625 C-28.52064041 12.01045405 -26.45704766 7.62190108 -22.59375 3.57421875 C-16.05992139 -2.22593843 -8.17473213 -3.74545712 0 0 Z " fill="#FCFBF9" transform="translate(39.3125,12.625)"/>
<path d="M0 0 C1.77734375 1.52734375 1.77734375 1.52734375 3 3 C3.40476562 2.5153125 3.80953125 2.030625 4.2265625 1.53125 C6.95968659 -0.82862807 9.28792185 -0.53888735 12.77734375 -0.4140625 C16.43134115 0.26664703 17.88497995 2.05179024 20 5 C22.70300039 11.80048155 23.403359 19.48574666 21.20703125 26.55078125 C19.56976667 29.98213653 18.18398262 31.87734492 15 34 C12.3125 33.625 12.3125 33.625 10 33 C9.04738513 28.23692563 8.91666643 23.8333472 9 19 C8.97421875 19.83144531 8.9484375 20.66289062 8.921875 21.51953125 C8.86515625 22.60621094 8.8084375 23.69289063 8.75 24.8125 C8.68039063 26.43091797 8.68039063 26.43091797 8.609375 28.08203125 C8 31 8 31 6.0859375 32.8984375 C4 34 4 34 1.875 33.8125 C0 33 0 33 -2 31 C-2.4140625 28.3984375 -2.4140625 28.3984375 -2.625 25.375 C-2.69976562 24.37210938 -2.77453125 23.36921875 -2.8515625 22.3359375 C-2.90054688 21.56507812 -2.94953125 20.79421875 -3 20 C-3.06058594 20.85464844 -3.12117188 21.70929687 -3.18359375 22.58984375 C-3.26738281 23.69457031 -3.35117188 24.79929687 -3.4375 25.9375 C-3.51871094 27.03964844 -3.59992188 28.14179687 -3.68359375 29.27734375 C-4 32 -4 32 -5 33 C-7.8125 33.4375 -7.8125 33.4375 -11 33 C-16.61910904 26.31781628 -16.61737665 19.41175691 -16 11 C-13.90403999 2.32334201 -8.86662916 -1.81251535 0 0 Z " fill="#FF9900" transform="translate(79,11)"/>
<path d="M0 0 C10.06150507 -0.52749638 10.06150507 -0.52749638 15 3 C15.825 3.144375 16.65 3.28875 17.5 3.4375 C20.85835551 4.19312999 22.54707904 5.6133742 25 8 C25.69313908 9.65583225 26.36474424 11.32110979 27 13 C27.99 13.33 28.98 13.66 30 14 C31.94819177 18.36394957 32.2707932 22.25915031 32.25 27 C32.25773437 28.7634375 32.25773437 28.7634375 32.265625 30.5625 C31.99594813 34.05243591 31.37232655 36.78510913 30 40 C27.875 40.875 27.875 40.875 26 41 C25.7525 42.093125 25.505 43.18625 25.25 44.3125 C24 48 24 48 22.3125 49.875 C19.26930399 51.35547374 16.34094256 51.57478913 13 52 C12.01 52.66 11.02 53.32 10 54 C7.58984375 54.265625 7.58984375 54.265625 4.9375 54.25 C4.05964844 54.25515625 3.18179687 54.2603125 2.27734375 54.265625 C0 54 0 54 -2 52 C-3.6396875 51.814375 -3.6396875 51.814375 -5.3125 51.625 C-9.4668767 50.92086836 -11.08952617 49.99363023 -14 47 C-14.70211894 45.34795544 -15.36971413 43.68076231 -16 42 C-16.66 41.401875 -17.32 40.80375 -18 40.1875 C-20.78731668 37.13887238 -21.51606576 34.05698203 -22 30 C-21.5625 27.125 -21.5625 27.125 -21 25 C-21.33 24.34 -21.66 23.68 -22 23 C-21.546875 20.87109375 -21.546875 20.87109375 -20.75 18.4375 C-20.37101562 17.22900391 -20.37101562 17.22900391 -19.984375 15.99609375 C-19.65953125 15.33738281 -19.3346875 14.67867187 -19 14 C-18.01 13.67 -17.02 13.34 -16 13 C-15.319375 11.6078125 -15.319375 11.6078125 -14.625 10.1875 C-12.80105796 6.60976753 -11.44840907 5.03769627 -8 3 C-4.1875 2.75 -4.1875 2.75 -1 3 C-0.67 2.01 -0.34 1.02 0 0 Z M-9 6 C-9.33 7.32 -9.66 8.64 -10 10 C-8.68 9.01 -7.36 8.02 -6 7 C-6.99 6.67 -7.98 6.34 -9 6 Z M-8 11 C-9.051875 11.5775 -10.10375 12.155 -11.1875 12.75 C-15.19305827 15.95444662 -15.30735405 19.10764001 -16 24 C-16.2475 24.928125 -16.495 25.85625 -16.75 26.8125 C-17.06737148 29.58950048 -16.32637849 30.5566712 -15 33 C-14.79375 34.299375 -14.5875 35.59875 -14.375 36.9375 C-13.76174977 39.61984653 -13.32269803 40.72700167 -11.19921875 42.5234375 C-9.81602908 43.35790293 -8.40718906 44.15179183 -6.97265625 44.89453125 C-5 46 -5 46 -3.66796875 47.6015625 C-0.30028375 50.42505484 4.35892931 49.56895065 8.5390625 49.5 C12.8286615 48.88028367 14.76521076 47.61706986 17.5703125 44.41015625 C19 43 19 43 21.04296875 42.66796875 C21.68878906 42.44753906 22.33460937 42.22710937 23 42 C24.33789303 39.40312696 24.33789303 39.40312696 25.1875 36.25 C25.51105469 35.20328125 25.83460937 34.1565625 26.16796875 33.078125 C27.84027472 26.89137801 28.1687433 24.75068229 25 19 C24.6596875 17.4840625 24.6596875 17.4840625 24.3125 15.9375 C22.59818583 12.10070162 20.38879193 11.03731931 16.77734375 9.078125 C15 8 15 8 14 6 C11.26916098 5.86451185 8.54508193 5.76570145 5.8125 5.6875 C4.65911133 5.6246582 4.65911133 5.6246582 3.48242188 5.56054688 C-2.17068508 5.43923557 -4.26136721 6.49324811 -8 11 Z M17 7 C17.99 7.99 18.98 8.98 20 10 C20.33 9.01 20.66 8.02 21 7 C19.68 7 18.36 7 17 7 Z M-18 18 C-18.33 18.99 -18.66 19.98 -19 21 C-18.34 21 -17.68 21 -17 21 C-17.33 20.01 -17.66 19.02 -18 18 Z M27 18 C27.33 18.99 27.66 19.98 28 21 C28.66 20.67 29.32 20.34 30 20 C29.67 19.34 29.34 18.68 29 18 C28.34 18 27.68 18 27 18 Z M-19 33 C-18.67 33.99 -18.34 34.98 -18 36 C-17.67 35.01 -17.34 34.02 -17 33 C-17.66 33 -18.32 33 -19 33 Z M28 33 C28.33 34.32 28.66 35.64 29 37 C29.33 35.68 29.66 34.36 30 33 C29.34 33 28.68 33 28 33 Z M-10 45 C-10.33 45.66 -10.66 46.32 -11 47 C-9.68 47.33 -8.36 47.66 -7 48 C-7.33 47.01 -7.66 46.02 -8 45 C-8.66 45 -9.32 45 -10 45 Z M19 45 C18.67 45.99 18.34 46.98 18 48 C18.99 47.67 19.98 47.34 21 47 C21 46.34 21 45.68 21 45 C20.34 45 19.68 45 19 45 Z " fill="#FF9900" transform="translate(25,3)"/>
<path d="M0 0 C1.5778125 -0.0309375 1.5778125 -0.0309375 3.1875 -0.0625 C6.22594439 0.00502099 7.58676409 0.16926931 10 2 C14.08837886 7.40250064 13.88346339 14.51260708 13 21 C11.7890625 22.95703125 11.7890625 22.95703125 10 24 C7.3125 23.6875 7.3125 23.6875 5 23 C4.66430703 21.37548581 4.3315204 19.75037083 4 18.125 C3.814375 17.22007813 3.62875 16.31515625 3.4375 15.3828125 C3 13 3 13 3 11 C2.01 11.33 1.02 11.66 0 12 C-0.03738281 12.61488281 -0.07476562 13.22976562 -0.11328125 13.86328125 C-0.17902344 14.67152344 -0.24476562 15.47976562 -0.3125 16.3125 C-0.37050781 17.11300781 -0.42851563 17.91351563 -0.48828125 18.73828125 C-1.0908006 21.4013248 -1.80873935 22.39869414 -4 24 C-6.6875 23.6875 -6.6875 23.6875 -9 23 C-11.81859294 16.65816588 -12.20834544 8.81052793 -10.109375 2.19140625 C-7.79193873 -2.38634638 -4.45775941 -0.66866391 0 0 Z " fill="#FF9900" transform="translate(125,21)"/>
<path d="M0 0 C1.5778125 -0.0309375 1.5778125 -0.0309375 3.1875 -0.0625 C6.22594439 0.00502099 7.58676409 0.16926931 10 2 C14.08837886 7.40250064 13.88346339 14.51260708 13 21 C11.7890625 22.95703125 11.7890625 22.95703125 10 24 C7.3125 23.6875 7.3125 23.6875 5 23 C4.66430703 21.37548581 4.3315204 19.75037083 4 18.125 C3.814375 17.22007813 3.62875 16.31515625 3.4375 15.3828125 C3 13 3 13 3 11 C2.01 11.33 1.02 11.66 0 12 C-0.66 15.63 -1.32 19.26 -2 23 C-3.65 23.33 -5.3 23.66 -7 24 C-9.80595297 22.09596049 -10.37973873 20.22982893 -11 17 C-11.11691615 15.02330135 -11.17501504 13.0426139 -11.1875 11.0625 C-11.20167969 10.04285156 -11.21585938 9.02320313 -11.23046875 7.97265625 C-10.99179182 4.89412838 -10.39856515 2.74315059 -9 0 C-5.94303796 -1.52848102 -3.33082979 -0.49962447 0 0 Z " fill="#FF9900" transform="translate(262,21)"/>
<path d="M0 0 C1.83034055 1.83034055 1.13042797 4.73211992 1.1328125 7.1875 C1.13474609 9.07082031 1.13474609 9.07082031 1.13671875 10.9921875 C1.13357666 11.97783691 1.13357666 11.97783691 1.13037109 12.98339844 C1.12502234 14.99161335 1.13031691 16.99960459 1.13671875 19.0078125 C1.13542969 20.26335938 1.13414063 21.51890625 1.1328125 22.8125 C1.13168457 23.97394531 1.13055664 25.13539062 1.12939453 26.33203125 C1 29 1 29 0 30 C-1.52519276 29.91062197 -3.04681929 29.75462854 -4.5625 29.5625 C-5.38878906 29.46066406 -6.21507812 29.35882813 -7.06640625 29.25390625 C-7.70449219 29.17011719 -8.34257812 29.08632813 -9 29 C-9.103125 28.360625 -9.20625 27.72125 -9.3125 27.0625 C-9.6528125 26.0415625 -9.6528125 26.0415625 -10 25 C-10.99 24.67 -11.98 24.34 -13 24 C-14.53769793 18.04142054 -15.24923069 11.71426163 -12.3125 6.125 C-8.86163412 1.46166772 -5.90607958 -0.65623106 0 0 Z " fill="#DF8509" transform="translate(29,15)"/>
<path d="M0 0 C4.28602114 0.16484697 6.46146021 0.55720062 9.8125 3.3125 C14.0488052 8.51710354 14.56614891 12.43031375 14 19 C12.89068565 23.06748595 11.06757998 26.0938716 8 29 C5.22538989 29.78965512 2.92688088 29.90403669 0 30 C-1.83034055 28.16965945 -1.13042797 25.26788008 -1.1328125 22.8125 C-1.13410156 21.55695312 -1.13539062 20.30140625 -1.13671875 19.0078125 C-1.13462402 18.35071289 -1.1325293 17.69361328 -1.13037109 17.01660156 C-1.12502234 15.00838665 -1.13031691 13.00039541 -1.13671875 10.9921875 C-1.13542969 9.73664062 -1.13414063 8.48109375 -1.1328125 7.1875 C-1.13112061 5.44533203 -1.13112061 5.44533203 -1.12939453 3.66796875 C-1 1 -1 1 0 0 Z " fill="#D9810A" transform="translate(32,15)"/>
<path d="M0 0 C2.875 -0.1875 2.875 -0.1875 6 0 C8.40074392 3.60111588 8.33244948 6.27603771 8.3125 10.4375 C8.32925781 11.75621094 8.34601563 13.07492188 8.36328125 14.43359375 C7.9937501 18.06135659 7.49214025 19.42895294 5 22 C2.625 21.75 2.625 21.75 0 21 C-2.34680487 17.64742161 -2.26835415 14.50120371 -2.25 10.5 C-2.25515625 9.3759375 -2.2603125 8.251875 -2.265625 7.09375 C-2.01284295 4.14958257 -1.53364541 2.48304495 0 0 Z " fill="#FF9900" transform="translate(241,23)"/>
<path d="M0 0 C2.875 -0.1875 2.875 -0.1875 6 0 C8.40074392 3.60111588 8.33244948 6.27603771 8.3125 10.4375 C8.32925781 11.75621094 8.34601563 13.07492188 8.36328125 14.43359375 C7.9937501 18.06135659 7.49214025 19.42895294 5 22 C2.625 21.75 2.625 21.75 0 21 C-2.34680487 17.64742161 -2.26835415 14.50120371 -2.25 10.5 C-2.25515625 9.3759375 -2.2603125 8.251875 -2.265625 7.09375 C-2.01284295 4.14958257 -1.53364541 2.48304495 0 0 Z " fill="#FF9900" transform="translate(104,23)"/>
<path d="M0 0 C2.0625 0.4375 2.0625 0.4375 4 1 C4 1.99 4 2.98 4 4 C3.01 4 2.02 4 1 4 C1.33 4.66 1.66 5.32 2 6 C3.65 5.01 5.3 4.02 7 3 C7 3.99 7 4.98 7 6 C7.66 6.33 8.32 6.66 9 7 C7.02 7 5.04 7 3 7 C3 7.66 3 8.32 3 9 C3.66 9 4.32 9 5 9 C5.33 9.66 5.66 10.32 6 11 C6.33 10.01 6.66 9.02 7 8 C8.32 8.33 9.64 8.66 11 9 C10.67 9.99 10.34 10.98 10 12 C9.34 11.67 8.68 11.34 8 11 C8 12.32 8 13.64 8 15 C8.99 14.67 9.98 14.34 11 14 C11 14.99 11 15.98 11 17 C9.68 16.67 8.36 16.34 7 16 C6.34 16.99 5.68 17.98 5 19 C4.01 19 3.02 19 2 19 C2 16 2 16 3.5 14.3125 C3.995 13.879375 4.49 13.44625 5 13 C3.02 13.99 3.02 13.99 1 15 C1 16.65 1 18.3 1 20 C5.455 19.01 5.455 19.01 10 18 C9.5206753 22.31392226 8.2542015 24.16569547 5 27 C5 26.01 5 25.02 5 24 C4.34 24 3.68 24 3 24 C3 25.32 3 26.64 3 28 C1.68 27.67 0.36 27.34 -1 27 C-1 21 -1 15 -1 9 C-1.01160156 8.33742188 -1.02320312 7.67484375 -1.03515625 6.9921875 C-1.06095117 4.99492386 -1.03221243 2.99717045 -1 1 C-0.67 0.67 -0.34 0.34 0 0 Z " fill="#470F00" transform="translate(33,16)"/>
<path d="M0 0 C0.99 0.33 1.98 0.66 3 1 C3.07654536 5.51617599 3.10228696 9.59085217 2 14 C0.68 14.33 -0.64 14.66 -2 15 C-1.34 15.33 -0.68 15.66 0 16 C-0.33 16.99 -0.66 17.98 -1 19 C-1.99 19 -2.98 19 -4 19 C-4 17.68 -4 16.36 -4 15 C-4.99 15.66 -5.98 16.32 -7 17 C-7.99 17 -8.98 17 -10 17 C-10 16.01 -10 15.02 -10 14 C-9.34 14 -8.68 14 -8 14 C-8 13.34 -8 12.68 -8 12 C-8.66 12 -9.32 12 -10 12 C-9.34 10.68 -8.68 9.36 -8 8 C-7.01 8 -6.02 8 -5 8 C-5 9.32 -5 10.64 -5 12 C-4.34 12 -3.68 12 -3 12 C-3 11.01 -3 10.02 -3 9 C-2.34 9 -1.68 9 -1 9 C-1 8.34 -1 7.68 -1 7 C-3.31 7 -5.62 7 -8 7 C-7.34 6.67 -6.68 6.34 -6 6 C-5.34786708 3.97536745 -5.34786708 3.97536745 -5 2 C-3.35 1.67 -1.7 1.34 0 1 C0 0.67 0 0.34 0 0 Z " fill="#430C00" transform="translate(26,16)"/>
<path d="M0 0 C1.875 1.125 1.875 1.125 3 3 C3.42478586 7.07794425 3.31282587 8.53076119 1 12 C-0.875 12.3984375 -0.875 12.3984375 -3 12.375 C-3.70125 12.38273437 -4.4025 12.39046875 -5.125 12.3984375 C-7 12 -7 12 -9 9 C-9.32502803 5.87973093 -9.51151479 3.85252465 -7.875 1.125 C-5.11909116 -0.52854531 -3.14924548 -0.39365568 0 0 Z " fill="#FF9900" transform="translate(247,9)"/>
<path d="M0 0 C1.875 1.125 1.875 1.125 3 3 C3.42478586 7.07794425 3.31282587 8.53076119 1 12 C-0.875 12.3984375 -0.875 12.3984375 -3 12.375 C-3.70125 12.38273437 -4.4025 12.39046875 -5.125 12.3984375 C-7 12 -7 12 -9 9 C-9.32502803 5.87973093 -9.51151479 3.85252465 -7.875 1.125 C-5.11909116 -0.52854531 -3.14924548 -0.39365568 0 0 Z " fill="#FF9900" transform="translate(110,9)"/>
<path d="M0 0 C4.48712078 0.17258157 6.50598402 0.56904989 9.9375 3.5625 C10.618125 4.366875 11.29875 5.17125 12 6 C10.68 6.33 9.36 6.66 8 7 C7.67 6.34 7.34 5.68 7 5 C5.68 5.99 4.36 6.98 3 8 C2.34 7.67 1.68 7.34 1 7 C1.33 6.34 1.66 5.68 2 5 C2.99 5 3.98 5 5 5 C4.67 4.34 4.34 3.68 4 3 C3.01 2.67 2.02 2.34 1 2 C0.938125 3.27875 0.87625 4.5575 0.8125 5.875 C0.76029297 6.95394531 0.76029297 6.95394531 0.70703125 8.0546875 C0.80371094 8.69664063 0.90039062 9.33859375 1 10 C1.99 10.66 2.98 11.32 4 12 C3.01 12.33 2.02 12.66 1 13 C0.979375 14.27875 0.95875 15.5575 0.9375 16.875 C0.92589844 17.59429687 0.91429687 18.31359375 0.90234375 19.0546875 C0.87350758 21.08185404 0.87350758 21.08185404 2 23 C1.34 23 0.68 23 0 23 C0.27034634 25.43717258 0.27034634 25.43717258 1 28 C1.99 28.66 2.98 29.32 4 30 C2.35 29.67 0.7 29.34 -1 29 C-1.02465881 25.03069011 -1.04284023 21.06140966 -1.05493164 17.09204102 C-1.05997057 15.74079614 -1.06680177 14.38955674 -1.07543945 13.03833008 C-1.08752419 11.09979566 -1.09269828 9.161222 -1.09765625 7.22265625 C-1.10289307 6.05484619 -1.10812988 4.88703613 -1.11352539 3.68383789 C-1 1 -1 1 0 0 Z " fill="#E78A08" transform="translate(32,15)"/>
<path d="M0 0 C0.33 0 0.66 0 1 0 C1 1.98 1 3.96 1 6 C0.34 6 -0.32 6 -1 6 C-1 6.66 -1 7.32 -1 8 C-0.34 8 0.32 8 1 8 C1 9.65 1 11.3 1 13 C0.01 13 -0.98 13 -2 13 C-2 11.68 -2 10.36 -2 9 C-2.66 9 -3.32 9 -4 9 C-4.33 9.99 -4.66 10.98 -5 12 C-5.33 10.35 -5.66 8.7 -6 7 C-6.99 7 -7.98 7 -9 7 C-9 5.68 -9 4.36 -9 3 C-8.01 3 -7.02 3 -6 3 C-6 3.66 -6 4.32 -6 5 C-4.35 4.67 -2.7 4.34 -1 4 C-0.67 2.68 -0.34 1.36 0 0 Z " fill="#420B00" transform="translate(27,31)"/>
<path d="M0 0 C0.99 0.33 1.98 0.66 3 1 C3 3.64 3 6.28 3 9 C2.67 8.34 2.34 7.68 2 7 C-1.3 7 -4.6 7 -8 7 C-7.34 6.67 -6.68 6.34 -6 6 C-5.34786708 3.97536745 -5.34786708 3.97536745 -5 2 C-3.35 1.67 -1.7 1.34 0 1 C0 0.67 0 0.34 0 0 Z " fill="#8D4400" transform="translate(26,16)"/>
<path d="M0 0 C0.33 0.99 0.66 1.98 1 3 C2.32 3 3.64 3 5 3 C5.33 4.32 5.66 5.64 6 7 C6.33 6.34 6.66 5.68 7 5 C7.66 5 8.32 5 9 5 C9 6.32 9 7.64 9 9 C10.65 8.67 12.3 8.34 14 8 C13.67 8.66 13.34 9.32 13 10 C10.03 9.67 7.06 9.34 4 9 C3.67 7.68 3.34 6.36 3 5 C2.01 4.67 1.02 4.34 0 4 C0 2.68 0 1.36 0 0 Z " fill="#DB8613" transform="translate(16,35)"/>
<path d="M0 0 C0.66 0 1.32 0 2 0 C2 4.95 2 9.9 2 15 C1.34 15 0.68 15 0 15 C0 13.68 0 12.36 0 11 C-0.66 11 -1.32 11 -2 11 C-2 10.34 -2 9.68 -2 9 C-1.34 9 -0.68 9 0 9 C-0.185625 7.88625 -0.37125 6.7725 -0.5625 5.625 C-1 2 -1 2 0 0 Z " fill="#BC6A08" transform="translate(28,28)"/>
<path d="M0 0 C1.32 0.33 2.64 0.66 4 1 C4.042721 2.66611905 4.04063832 4.33382885 4 6 C3 7 3 7 0.4375 7.0625 C-0.7690625 7.0315625 -0.7690625 7.0315625 -2 7 C-2 6.34 -2 5.68 -2 5 C-2.99 5 -3.98 5 -5 5 C-5.33 6.32 -5.66 7.64 -6 9 C-6.66 7.35 -7.32 5.7 -8 4 C-5.69 3.34 -3.38 2.68 -1 2 C-1 3.32 -1 4.64 -1 6 C-0.01 5.67 0.98 5.34 2 5 C2.33 4.34 2.66 3.68 3 3 C2.01 2.67 1.02 2.34 0 2 C0 1.34 0 0.68 0 0 Z " fill="#D47900" transform="translate(23,29)"/>
<path d="M0 0 C2.0625 0.4375 2.0625 0.4375 4 1 C4 1.99 4 2.98 4 4 C3.01 4 2.02 4 1 4 C0.67 5.65 0.34 7.3 0 9 C-0.33 9 -0.66 9 -1 9 C-1.09765625 2.84765625 -1.09765625 2.84765625 -1 1 C-0.67 0.67 -0.34 0.34 0 0 Z " fill="#5E2000" transform="translate(33,16)"/>
<path d="M0 0 C0 0.99 0 1.98 0 3 C-1.32 2.67 -2.64 2.34 -4 2 C-4.33 3.32 -4.66 4.64 -5 6 C-5.33 5.01 -5.66 4.02 -6 3 C-6.66 3 -7.32 3 -8 3 C-8 2.34 -8 1.68 -8 1 C-2.25 0 -2.25 0 0 0 Z " fill="#C56E00" transform="translate(44,22)"/>
<path d="M0 0 C1.32 1.65 2.64 3.3 4 5 C1.69 5 -0.62 5 -3 5 C-2.34 4.67 -1.68 4.34 -1 4 C-0.34786708 1.97536745 -0.34786708 1.97536745 0 0 Z " fill="#491100" transform="translate(21,18)"/>
</svg>
